<?xml version="1.0" standalone="no"?>
<!DOCTYPE svg PUBLIC "-//W3C//DTD SVG 20010904//EN"
 "http://www.w3.org/TR/2001/REC-SVG-20010904/DTD/svg10.dtd">
<svg version="1.0" xmlns="http://www.w3.org/2000/svg"
 width="846.000000pt" height="780.000000pt" viewBox="0 0 846.000000 780.000000"
 preserveAspectRatio="xMidYMid meet">
<metadata>
Created by potrace 1.16, written by Peter Selinger 2001-2019
</metadata>
<g transform="translate(0.000000,780.000000) scale(0.100000,-0.100000)"
fill="#000000" stroke="none">
<path d="M1026 6934 c-522 -262 -945 -479 -940 -483 5 -5 61 -25 124 -46 339
-111 522 -188 648 -274 285 -193 352 -430 236 -834 -44 -153 -121 -344 -279
-692 -309 -681 -406 -971 -450 -1345 -59 -498 77 -939 414 -1342 503 -601
1537 -1113 3083 -1528 l223 -60 91 -91 92 -92 90 95 91 94 163 43 c1243 330
2125 700 2704 1135 508 381 772 776 850 1274 20 132 15 438 -11 577 -59 324
-166 624 -400 1125 -220 472 -276 602 -334 780 -130 398 -78 653 171 843 140
107 254 161 587 278 124 44 226 80 227 82 2 2 -417 213 -931 470 l-934 467
-2283 -1 -2283 0 -949 -475z m6000 -134 c491 -243 596 -300 555 -300 -5 0 -49
-27 -99 -59 -441 -290 -562 -698 -376 -1272 52 -161 135 -358 312 -739 182
-392 251 -557 315 -750 230 -690 127 -1200 -333 -1660 -126 -126 -231 -212
-406 -330 -551 -373 -1373 -703 -2481 -994 -95 -25 -190 -54 -212 -66 l-40
-20 -53 25 c-29 14 -59 25 -66 25 -6 0 -121 30 -255 66 -1298 353 -2199 769
-2710 1254 -253 240 -406 498 -469 793 -28 132 -30 391 -4 542 51 299 136 538
409 1145 205 455 266 610 317 805 137 525 -12 919 -448 1180 -37 22 -69 45
-70 50 -1 6 256 139 571 297 l572 287 2203 0 2204 1 564 -280z"/>
<path d="M6161 6605 c-31 -86 -59 -208 -83 -365 -17 -113 -17 -704 0 -900 30
-339 76 -706 172 -1370 126 -874 166 -1275 157 -1594 -5 -215 -20 -287 -84
-409 -109 -207 -402 -306 -754 -253 -228 35 -960 167 -1243 226 -152 31 -136
54 -136 -194 l0 -215 53 -10 c213 -44 965 -150 1380 -196 597 -65 996 104
1200 510 36 72 64 174 82 296 51 357 25 667 -189 2204 -94 672 -127 1050 -128
1440 -1 352 26 597 87 809 14 47 25 91 25 96 0 6 -94 10 -254 10 l-254 0 -31
-85z"/>
<path d="M5055 6668 c-3 -7 -6 -910 -8 -2005 l-2 -1993 -1037 685 c-571 377
-1040 685 -1043 685 -3 0 -5 -472 -5 -1050 l0 -1050 260 0 260 0 2 593 3 594
390 -258 c215 -141 683 -451 1042 -688 359 -237 654 -431 657 -431 4 0 5 1108
4 2463 l-3 2462 -258 3 c-201 2 -259 0 -262 -10z"/>
<path d="M1915 6654 c-154 -23 -328 -74 -463 -135 l-63 -28 59 -88 c184 -275
246 -465 245 -753 -1 -304 -35 -411 -368 -1155 -225 -503 -316 -767 -371
-1070 -22 -122 -30 -390 -15 -510 75 -595 514 -1087 1326 -1485 171 -84 386
-180 404 -180 8 0 42 195 57 320 l6 55 -98 55 c-200 110 -407 241 -559 356
-380 285 -586 550 -668 857 -32 121 -31 380 1 525 29 128 79 280 147 447 53
129 89 208 302 665 60 129 125 270 144 314 18 43 39 80 45 83 6 2 244 -46 530
-107 415 -89 535 -111 599 -111 421 0 696 523 538 1026 -148 472 -617 792
-1313 895 -128 19 -421 34 -485 24z m415 -349 c253 -36 508 -120 646 -211 192
-127 320 -305 359 -496 18 -92 19 -129 4 -200 -15 -70 -43 -124 -88 -171 -56
-59 -104 -80 -196 -85 -72 -3 -121 5 -508 91 -235 52 -430 97 -433 100 -3 3 4
63 16 133 29 171 29 345 1 474 -17 76 -83 282 -116 363 -7 16 2 17 101 17 60
0 156 -7 214 -15z"/>
</g>
</svg>
